<svg width="323" height="362" viewBox="0 0 323 362" fill="none" xmlns="http://www.w3.org/2000/svg">
<path d="M0.666667 6C0.666667 8.94552 3.05448 11.3333 6 11.3333C8.94552 11.3333 11.3333 8.94552 11.3333 6C11.3333 3.05448 8.94552 0.666667 6 0.666667C3.05448 0.666667 0.666667 3.05448 0.666667 6ZM315.5 6H316.5V5H315.5V6ZM314.793 361.707C315.183 362.098 315.817 362.098 316.207 361.707L322.571 355.343C322.962 354.953 322.962 354.319 322.571 353.929C322.181 353.538 321.547 353.538 321.157 353.929L315.5 359.586L309.843 353.929C309.453 353.538 308.819 353.538 308.429 353.929C308.038 354.319 308.038 354.953 308.429 355.343L314.793 361.707ZM6 7H7.98397V5H6V7ZM11.9519 7H15.9199V5H11.9519V7ZM19.8878 7H23.8558V5H19.8878V7ZM27.8237 7H31.7917V5H27.8237V7ZM35.7596 7H39.7276V5H35.7596V7ZM43.6955 7H47.6635V5H43.6955V7ZM51.6314 7H55.5994V5H51.6314V7ZM59.5673 7H63.5353V5H59.5673V7ZM67.5032 7H71.4712V5H67.5032V7ZM75.4391 7H79.4071V5H75.4391V7ZM83.375 7H87.3429V5H83.375V7ZM91.3109 7H95.2788V5H91.3109V7ZM99.2468 7H103.215V5H99.2468V7ZM107.183 7H111.151V5H107.183V7ZM115.119 7H119.087V5H115.119V7ZM123.054 7H127.022V5H123.054V7ZM130.99 7H134.958V5H130.99V7ZM138.926 7H142.894V5H138.926V7ZM146.862 7H150.83V5H146.862V7ZM154.798 7H158.766V5H154.798V7ZM162.734 7H166.702V5H162.734V7ZM170.67 7H174.638V5H170.67V7ZM178.606 7H182.574V5H178.606V7ZM186.542 7H190.51V5H186.542V7ZM194.477 7H198.445V5H194.477V7ZM202.413 7H206.381V5H202.413V7ZM210.349 7H214.317V5H210.349V7ZM218.285 7H222.253V5H218.285V7ZM226.221 7H230.189V5H226.221V7ZM234.157 7H238.125V5H234.157V7ZM242.093 7H246.061V5H242.093V7ZM250.029 7H253.997V5H250.029V7ZM257.965 7H261.932V5H257.965V7ZM265.9 7H269.868V5H265.9V7ZM273.836 7H277.804V5H273.836V7ZM281.772 7H285.74V5H281.772V7ZM289.708 7H293.676V5H289.708V7ZM297.644 7H301.612V5H297.644V7ZM305.58 7H309.548V5H305.58V7ZM313.516 7H315.5V5H313.516V7ZM314.5 6V8.01705H316.5V6H314.5ZM314.5 12.0511V16.0852H316.5V12.0511H314.5ZM314.5 20.1193V24.1534H316.5V20.1193H314.5ZM314.5 28.1875V32.2216H316.5V28.1875H314.5ZM314.5 36.2557V40.2898H316.5V36.2557H314.5ZM314.5 44.3239V48.358H316.5V44.3239H314.5ZM314.5 52.3921V56.4261H316.5V52.3921H314.5ZM314.5 60.4602V64.4943H316.5V60.4602H314.5ZM314.5 68.5284V72.5625H316.5V68.5284H314.5ZM314.5 76.5966V80.6307H316.5V76.5966H314.5ZM314.5 84.6648V88.6989H316.5V84.6648H314.5ZM314.5 92.7329V96.767H316.5V92.7329H314.5ZM314.5 100.801V104.835H316.5V100.801H314.5ZM314.5 108.869V112.903H316.5V108.869H314.5ZM314.5 116.937V120.972H316.5V116.937H314.5ZM314.5 125.006V129.04H316.5V125.006H314.5ZM314.5 133.074V137.108H316.5V133.074H314.5ZM314.5 141.142V145.176H316.5V141.142H314.5ZM314.5 149.21V153.244H316.5V149.21H314.5ZM314.5 157.278V161.312H316.5V157.278H314.5ZM314.5 165.347V169.381H316.5V165.347H314.5ZM314.5 173.415V177.449H316.5V173.415H314.5ZM314.5 181.483V185.517H316.5V181.483H314.5ZM314.5 189.551V193.585H316.5V189.551H314.5ZM314.5 197.619V201.653H316.5V197.619H314.5ZM314.5 205.687V209.721H316.5V205.687H314.5ZM314.5 213.756V217.79H316.5V213.756H314.5ZM314.5 221.824V225.858H316.5V221.824H314.5ZM314.5 229.892V233.926H316.5V229.892H314.5ZM314.5 237.96V241.994H316.5V237.96H314.5ZM314.5 246.028V250.062H316.5V246.028H314.5ZM314.5 254.096V258.131H316.5V254.096H314.5ZM314.5 262.165V266.199H316.5V262.165H314.5ZM314.5 270.233V274.267H316.5V270.233H314.5ZM314.5 278.301V282.335H316.5V278.301H314.5ZM314.5 286.369V290.403H316.5V286.369H314.5ZM314.5 294.437V298.471H316.5V294.437H314.5ZM314.5 302.506V306.54H316.5V302.506H314.5ZM314.5 310.574V314.608H316.5V310.574H314.5ZM314.5 318.642V322.676H316.5V318.642H314.5ZM314.5 326.71V330.744H316.5V326.71H314.5ZM314.5 334.778V338.812H316.5V334.778H314.5ZM314.5 342.846V346.881H316.5V342.846H314.5ZM314.5 350.915V354.949H316.5V350.915H314.5ZM314.5 358.983V361H316.5V358.983H314.5Z" fill="white"/>
</svg>
