<svg width="323" height="362" viewBox="0 0 323 362" fill="none" xmlns="http://www.w3.org/2000/svg">
<path d="M322.833 6C322.833 8.94552 320.446 11.3333 317.5 11.3333C314.554 11.3333 312.167 8.94552 312.167 6C312.167 3.05448 314.554 0.666667 317.5 0.666667C320.446 0.666667 322.833 3.05448 322.833 6ZM8 6H7V5H8V6ZM8.70709 361.707C8.31659 362.098 7.68341 362.098 7.29291 361.707L0.928925 355.343C0.538422 354.953 0.538422 354.319 0.928925 353.929C1.31946 353.538 1.95261 353.538 2.34314 353.929L8 359.586L13.6569 353.929C14.0474 353.538 14.6805 353.538 15.0711 353.929C15.4616 354.319 15.4616 354.953 15.0711 355.343L8.70709 361.707ZM317.5 7H315.516V5H317.5V7ZM311.548 7H307.58V5H311.548V7ZM303.612 7H299.644V5H303.612V7ZM295.676 7H291.708V5H295.676V7ZM287.74 7H283.772V5H287.74V7ZM279.804 7H275.837V5H279.804V7ZM271.869 7H267.901V5H271.869V7ZM263.933 7H259.965V5H263.933V7ZM255.997 7H252.029V5H255.997V7ZM248.061 7H244.093V5H248.061V7ZM240.125 7H236.157V5H240.125V7ZM232.189 7H228.221V5H232.189V7ZM224.253 7H220.285V5H224.253V7ZM216.317 7H212.349V5H216.317V7ZM208.381 7H204.413V5H208.381V7ZM200.446 7H196.478V5H200.446V7ZM192.51 7H188.542V5H192.51V7ZM184.574 7H180.606V5H184.574V7ZM176.638 7H172.67V5H176.638V7ZM168.702 7H164.734V5H168.702V7ZM160.766 7H156.798V5H160.766V7ZM152.83 7H148.862V5H152.83V7ZM144.894 7H140.926V5H144.894V7ZM136.958 7H132.99V5H136.958V7ZM129.023 7H125.055V5H129.023V7ZM121.087 7H117.119V5H121.087V7ZM113.151 7H109.183V5H113.151V7ZM105.215 7H101.247V5H105.215V7ZM97.279 7H93.3111V5H97.279V7ZM89.3431 7H85.3752V5H89.3431V7ZM81.4073 7H77.4393V5H81.4073V7ZM73.4714 7H69.5034V5H73.4714V7ZM65.5355 7H61.5676V5H65.5355V7ZM57.5996 7H53.6317V5H57.5996V7ZM49.6637 7H45.6957V5H49.6637V7ZM41.7278 7H37.7598V5H41.7278V7ZM33.7919 7H29.8239V5H33.7919V7ZM25.856 7H21.888V5H25.856V7ZM17.92 7H13.9521V5H17.92V7ZM9.98413 7H8V5H9.98413V7ZM9 6V8.01705H7V6H9ZM9 12.0511V16.0852H7V12.0511H9ZM9 20.1193V24.1534H7V20.1193H9ZM9 28.1875V32.2216H7V28.1875H9ZM9 36.2557V40.2898H7V36.2557H9ZM9 44.3239V48.358H7V44.3239H9ZM9 52.3921V56.4261H7V52.3921H9ZM9 60.4602V64.4943H7V60.4602H9ZM9 68.5284V72.5625H7V68.5284H9ZM9 76.5966V80.6307H7V76.5966H9ZM9 84.6648V88.6989H7V84.6648H9ZM9 92.7329V96.767H7V92.7329H9ZM9 100.801V104.835H7V100.801H9ZM9 108.869V112.903H7V108.869H9ZM9 116.937V120.972H7V116.937H9ZM9 125.006V129.04H7V125.006H9ZM9 133.074V137.108H7V133.074H9ZM9 141.142V145.176H7V141.142H9ZM9 149.21V153.244H7V149.21H9ZM9 157.278V161.312H7V157.278H9ZM9 165.347V169.381H7V165.347H9ZM9 173.415V177.449H7V173.415H9ZM9 181.483V185.517H7V181.483H9ZM9 189.551V193.585H7V189.551H9ZM9 197.619V201.653H7V197.619H9ZM9 205.687V209.721H7V205.687H9ZM9 213.756V217.79H7V213.756H9ZM9 221.824V225.858H7V221.824H9ZM9 229.892V233.926H7V229.892H9ZM9 237.96V241.994H7V237.96H9ZM9 246.028V250.062H7V246.028H9ZM9 254.096V258.131H7V254.096H9ZM9 262.165V266.199H7V262.165H9ZM9 270.233V274.267H7V270.233H9ZM9 278.301V282.335H7V278.301H9ZM9 286.369V290.403H7V286.369H9ZM9 294.437V298.471H7V294.437H9ZM9 302.506V306.54H7V302.506H9ZM9 310.574V314.608H7V310.574H9ZM9 318.642V322.676H7V318.642H9ZM9 326.71V330.744H7V326.71H9ZM9 334.778V338.812H7V334.778H9ZM9 342.846V346.881H7V342.846H9ZM9 350.915V354.949H7V350.915H9ZM9 358.983V361H7V358.983H9Z" stroke="white"/>
</svg>
