<svg width="183" height="20" viewBox="0 0 183 20" fill="none" xmlns="http://www.w3.org/2000/svg">
<path d="M24.668 0.902344C24.668 1.55339 24.668 2.53646 24.668 3.85156C20.0195 3.85156 13.0404 3.86458 3.73047 3.89062C3.73047 4.63281 3.73047 5.73958 3.73047 7.21094C8.37891 7.25 15.3581 7.29557 24.668 7.34766C24.668 8.01172 24.668 9.0013 24.668 10.3164C20.0195 10.3294 13.0404 10.349 3.73047 10.375C3.73047 11.2995 3.73047 12.2305 3.73047 13.168C3.73047 14.0924 3.73047 15.0234 3.73047 15.9609C3.07943 15.9479 2.09635 15.9349 0.78125 15.9219C0.78125 12.6016 0.78125 7.60807 0.78125 0.941406C4.76562 0.928385 8.75 0.921875 12.7344 0.921875C16.7057 0.908854 20.6836 0.902344 24.668 0.902344ZM26.4258 0.921875C27.0768 0.921875 28.0599 0.921875 29.375 0.921875C29.375 3.60417 29.375 7.6276 29.375 12.9922C33.8542 12.9922 40.5729 12.9922 49.5312 12.9922C49.5312 13.6432 49.5312 14.6263 49.5312 15.9414C44.401 15.9414 36.6992 15.9414 26.4258 15.9414C26.4258 13.4284 26.4258 10.9219 26.4258 8.42188C26.4258 5.92188 26.4258 3.42188 26.4258 0.921875ZM75.1562 0.921875C75.1562 1.57292 75.1562 2.55599 75.1562 3.87109C70.5078 3.87109 63.5286 3.88411 54.2188 3.91016C54.2188 4.65234 54.2188 5.76562 54.2188 7.25C58.8802 7.27604 65.8594 7.3151 75.1562 7.36719C75.1562 8.03125 75.1562 9.02734 75.1562 10.3555C70.5078 10.3555 63.5286 10.3685 54.2188 10.3945C54.2188 10.9674 54.2188 11.8398 54.2188 13.0117C58.8802 13.0117 65.8594 13.0182 75.1562 13.0312C75.1562 13.6823 75.1562 14.6654 75.1562 15.9805C69.8568 15.9674 61.8945 15.9609 51.2695 15.9609C51.2695 12.6276 51.2695 7.6276 51.2695 0.960938C55.2539 0.960938 59.2383 0.954427 63.2227 0.941406C67.207 0.928385 71.1849 0.921875 75.1562 0.921875ZM100.762 0.921875C100.762 1.57292 100.762 2.55599 100.762 3.87109C96.1133 3.87109 89.1341 3.88411 79.8242 3.91016C79.8242 4.65234 79.8242 5.76562 79.8242 7.25C84.4857 7.27604 91.4648 7.3151 100.762 7.36719C100.762 8.03125 100.762 9.02734 100.762 10.3555C96.1133 10.3555 89.1341 10.3685 79.8242 10.3945C79.8242 10.9674 79.8242 11.8398 79.8242 13.0117C84.4857 13.0117 91.4648 13.0182 100.762 13.0312C100.762 13.6823 100.762 14.6654 100.762 15.9805C95.4622 15.9674 87.5 15.9609 76.875 15.9609C76.875 12.6276 76.875 7.6276 76.875 0.960938C80.8594 0.960938 84.8438 0.954427 88.8281 0.941406C92.8125 0.928385 96.7904 0.921875 100.762 0.921875ZM102.422 0.960938C107.578 0.973958 115.306 0.980469 125.605 0.980469C125.605 1.63151 125.605 2.61458 125.605 3.92969C123.353 3.92969 119.98 3.92969 115.488 3.92969C115.488 6.59896 115.482 10.6029 115.469 15.9414C114.818 15.9414 113.841 15.9414 112.539 15.9414C112.539 13.2721 112.539 9.26172 112.539 3.91016C110.299 3.91016 106.927 3.91016 102.422 3.91016C102.422 3.42839 102.422 2.9401 102.422 2.44531C102.422 1.95052 102.422 1.45573 102.422 0.960938ZM131.992 1.07812C132.188 1.07812 132.474 1.07812 132.852 1.07812C133.216 1.07812 133.522 1.07812 133.77 1.07812C133.874 1.07812 134.089 1.07812 134.414 1.07812C134.753 1.07812 135.117 1.07812 135.508 1.07812C135.99 1.07812 136.458 1.07812 136.914 1.07812C137.357 1.07812 137.624 1.07812 137.715 1.07812C137.793 1.07812 137.865 1.07812 137.93 1.07812C138.008 1.07812 138.066 1.07812 138.105 1.07812C138.132 1.07812 138.158 1.07812 138.184 1.07812C138.197 1.07812 138.21 1.07812 138.223 1.07812C138.249 1.07812 138.262 1.07812 138.262 1.07812C138.275 1.07812 138.281 1.07812 138.281 1.07812C138.307 1.07812 138.333 1.07812 138.359 1.07812C138.359 1.07812 138.366 1.07812 138.379 1.07812C138.392 1.07812 138.411 1.07812 138.438 1.07812C138.451 1.07812 138.464 1.07812 138.477 1.07812C138.49 1.07812 138.503 1.07812 138.516 1.07812C139.049 1.10417 139.583 1.22135 140.117 1.42969C140.651 1.63802 141.146 1.95703 141.602 2.38672C141.602 2.38672 141.608 2.38672 141.621 2.38672C142.077 1.95703 142.572 1.63802 143.105 1.42969C143.652 1.22135 144.186 1.10417 144.707 1.07812C144.72 1.07812 144.733 1.07812 144.746 1.07812C144.759 1.07812 144.772 1.07812 144.785 1.07812C144.785 1.07812 144.792 1.07812 144.805 1.07812C144.818 1.07812 144.837 1.07812 144.863 1.07812C144.889 1.07812 144.915 1.07812 144.941 1.07812C144.954 1.07812 144.961 1.07812 144.961 1.07812C144.974 1.07812 144.987 1.07812 145 1.07812C145.013 1.07812 145.026 1.07812 145.039 1.07812C145.065 1.07812 145.091 1.07812 145.117 1.07812C145.169 1.07812 145.228 1.07812 145.293 1.07812C145.358 1.07812 145.43 1.07812 145.508 1.07812C145.586 1.07812 145.788 1.07812 146.113 1.07812C146.426 1.07812 146.784 1.07812 147.188 1.07812C147.669 1.07812 148.138 1.07812 148.594 1.07812C149.049 1.07812 149.336 1.07812 149.453 1.07812C149.701 1.07812 150.007 1.07812 150.371 1.07812C150.749 1.07812 151.035 1.07812 151.23 1.07812C151.243 1.07812 151.257 1.07812 151.27 1.07812C151.283 1.07812 151.296 1.07812 151.309 1.07812C151.842 1.10417 152.376 1.22135 152.91 1.42969C153.444 1.63802 153.939 1.95703 154.395 2.38672C154.837 2.80339 155.195 3.31771 155.469 3.92969C155.742 4.55469 155.879 5.24479 155.879 6C155.892 6 155.898 6 155.898 6C155.898 6 155.898 6.00651 155.898 6.01953C155.898 6.05859 155.898 6.10417 155.898 6.15625C155.898 6.19531 155.898 6.24089 155.898 6.29297C155.885 8.44141 155.872 11.6641 155.859 15.9609C155.208 15.9609 154.219 15.9609 152.891 15.9609C152.904 14.3333 152.91 12.7057 152.91 11.0781C152.923 9.46354 152.93 7.84245 152.93 6.21484C152.93 6.21484 152.93 6.20833 152.93 6.19531C152.93 6.02604 152.923 5.86979 152.91 5.72656C152.897 5.58333 152.871 5.4401 152.832 5.29688C152.78 5.1276 152.715 4.98438 152.637 4.86719C152.559 4.75 152.467 4.64583 152.363 4.55469C152.22 4.41146 152.044 4.29427 151.836 4.20312C151.641 4.09896 151.406 4.04688 151.133 4.04688C150.794 4.04688 150.293 4.04688 149.629 4.04688C149.629 4.04688 149.486 4.04688 149.199 4.04688C148.926 4.04688 148.594 4.04688 148.203 4.04688C147.747 4.04688 147.285 4.04688 146.816 4.04688C146.348 4.04688 146.048 4.04688 145.918 4.04688C145.684 4.04688 145.462 4.04688 145.254 4.04688C145.059 4.04688 144.954 4.04688 144.941 4.04688C144.941 4.04688 144.935 4.04688 144.922 4.04688C144.909 4.04688 144.902 4.04688 144.902 4.04688C144.889 4.04688 144.883 4.04688 144.883 4.04688C144.609 4.04688 144.375 4.09896 144.18 4.20312C143.971 4.29427 143.802 4.41146 143.672 4.55469C143.516 4.6849 143.385 4.85417 143.281 5.0625C143.177 5.25781 143.118 5.52474 143.105 5.86328C143.105 5.90234 143.105 5.95443 143.105 6.01953C143.105 6.03255 143.105 6.05208 143.105 6.07812C143.105 6.10417 143.105 6.14323 143.105 6.19531C143.105 6.19531 143.105 6.20182 143.105 6.21484C143.105 7.84245 143.105 9.46354 143.105 11.0781C143.118 12.7057 143.125 14.3333 143.125 15.9609C142.799 15.9609 142.311 15.9609 141.66 15.9609C141.634 15.9609 141.602 15.9609 141.562 15.9609C141.237 15.9609 140.749 15.9609 140.098 15.9609C140.098 14.3333 140.104 12.7057 140.117 11.0781C140.117 9.46354 140.117 7.84245 140.117 6.21484C140.117 6.21484 140.117 6.20833 140.117 6.19531C140.117 6.16927 140.117 6.13021 140.117 6.07812C140.117 6.0651 140.117 6.04557 140.117 6.01953C140.117 5.98047 140.117 5.92839 140.117 5.86328C140.104 5.52474 140.046 5.25781 139.941 5.0625C139.837 4.85417 139.714 4.6849 139.57 4.55469C139.427 4.41146 139.251 4.29427 139.043 4.20312C138.848 4.09896 138.613 4.04688 138.34 4.04688C138.34 4.04688 138.333 4.04688 138.32 4.04688C138.32 4.04688 138.314 4.04688 138.301 4.04688C138.301 4.04688 138.294 4.04688 138.281 4.04688C138.281 4.04688 138.177 4.04688 137.969 4.04688C137.76 4.04688 137.539 4.04688 137.305 4.04688C137.201 4.04688 136.979 4.04688 136.641 4.04688C136.302 4.04688 135.931 4.04688 135.527 4.04688C135.059 4.04688 134.622 4.04688 134.219 4.04688C133.802 4.04688 133.594 4.04688 133.594 4.04688C133.268 4.04688 132.773 4.04688 132.109 4.04688C132.096 4.04688 132.09 4.04688 132.09 4.04688C131.816 4.04688 131.582 4.09896 131.387 4.20312C131.178 4.29427 131.003 4.41146 130.859 4.55469C130.768 4.64583 130.677 4.75 130.586 4.86719C130.508 4.98438 130.443 5.1276 130.391 5.29688C130.365 5.45312 130.345 5.59635 130.332 5.72656C130.319 5.86979 130.312 6.02604 130.312 6.19531C130.312 6.19531 130.312 6.20182 130.312 6.21484C130.312 7.84245 130.312 9.46354 130.312 11.0781C130.312 12.7057 130.319 14.3333 130.332 15.9609C129.668 15.9609 128.678 15.9609 127.363 15.9609C127.35 13.8125 127.337 10.5898 127.324 6.29297C127.324 6.24089 127.324 6.19531 127.324 6.15625C127.324 6.10417 127.324 6.05859 127.324 6.01953C127.324 6.01953 127.324 6.01302 127.324 6C127.324 6 127.331 6 127.344 6C127.344 5.24479 127.48 4.55469 127.754 3.92969C128.027 3.31771 128.385 2.80339 128.828 2.38672C129.284 1.95703 129.779 1.63802 130.312 1.42969C130.846 1.22135 131.38 1.10417 131.914 1.07812C131.927 1.07812 131.94 1.07812 131.953 1.07812C131.966 1.07812 131.979 1.07812 131.992 1.07812ZM162.617 0.863281C162.617 0.863281 162.624 0.869792 162.637 0.882812C162.676 0.869792 162.715 0.869792 162.754 0.882812C162.793 0.882812 162.832 0.882812 162.871 0.882812C164.382 0.882812 166.634 0.889323 169.629 0.902344C171.139 0.889323 173.398 0.882812 176.406 0.882812C176.445 0.882812 176.484 0.882812 176.523 0.882812C176.562 0.869792 176.602 0.869792 176.641 0.882812C176.641 0.869792 176.641 0.863281 176.641 0.863281C177.409 0.876302 178.099 1.01953 178.711 1.29297C179.336 1.56641 179.857 1.92448 180.273 2.36719C180.703 2.83594 181.022 3.34375 181.23 3.89062C181.439 4.4375 181.556 4.98438 181.582 5.53125C181.582 5.92188 181.589 6.35156 181.602 6.82031C181.602 7.28906 181.602 7.7513 181.602 8.20703C181.602 9.06641 181.595 9.82812 181.582 10.4922C181.582 11.1562 181.582 11.4883 181.582 11.4883C181.595 12.0482 181.497 12.6081 181.289 13.168C181.081 13.7279 180.755 14.2227 180.312 14.6523C179.857 15.082 179.303 15.4076 178.652 15.6289C177.988 15.8633 177.259 15.9674 176.465 15.9414C176.478 15.9414 176.491 15.9414 176.504 15.9414C174.98 15.9414 172.689 15.9414 169.629 15.9414C168.105 15.9414 165.814 15.9414 162.754 15.9414C162.767 15.9414 162.78 15.9414 162.793 15.9414C162.728 15.9414 162.656 15.9414 162.578 15.9414C161.875 15.9414 161.224 15.8372 160.625 15.6289C159.974 15.4076 159.421 15.082 158.965 14.6523C158.509 14.2227 158.177 13.7279 157.969 13.168C157.76 12.6081 157.669 12.0482 157.695 11.4883C157.695 11.4883 157.689 11.1562 157.676 10.4922C157.676 9.82812 157.676 9.06641 157.676 8.20703C157.676 7.7513 157.676 7.28906 157.676 6.82031C157.676 6.35156 157.682 5.92188 157.695 5.53125C157.708 4.98438 157.819 4.4375 158.027 3.89062C158.236 3.34375 158.561 2.83594 159.004 2.36719C159.421 1.92448 159.935 1.56641 160.547 1.29297C161.172 1.01953 161.862 0.876302 162.617 0.863281ZM162.48 3.8125C162.142 3.83854 161.868 3.90365 161.66 4.00781C161.465 4.11198 161.296 4.23568 161.152 4.37891C160.996 4.54818 160.872 4.75 160.781 4.98438C160.69 5.21875 160.645 5.43359 160.645 5.62891C160.645 5.62891 160.645 5.63542 160.645 5.64844C160.645 6.98958 160.645 8.99479 160.645 11.6641C160.645 11.8203 160.671 11.9766 160.723 12.1328C160.788 12.276 160.879 12.4062 160.996 12.5234C161.126 12.6406 161.322 12.7513 161.582 12.8555C161.842 12.9596 162.22 13.0052 162.715 12.9922C162.715 12.9922 162.721 12.9922 162.734 12.9922C163.997 12.9922 165.885 12.9922 168.398 12.9922C168.672 12.9922 169.082 12.9922 169.629 12.9922C169.902 12.9922 170.312 12.9922 170.859 12.9922C172.122 12.9922 174.017 12.9922 176.543 12.9922C176.543 12.9922 176.549 12.9922 176.562 12.9922C177.044 13.0052 177.415 12.9596 177.676 12.8555C177.936 12.7513 178.132 12.6406 178.262 12.5234C178.392 12.4062 178.483 12.276 178.535 12.1328C178.587 11.9766 178.62 11.8203 178.633 11.6641C178.633 10.3229 178.633 8.31771 178.633 5.64844C178.633 5.64844 178.633 5.64193 178.633 5.62891C178.62 5.43359 178.574 5.21875 178.496 4.98438C178.405 4.75 178.281 4.54818 178.125 4.37891C177.982 4.23568 177.806 4.11198 177.598 4.00781C177.402 3.90365 177.129 3.83854 176.777 3.8125C176.738 3.8125 176.686 3.8125 176.621 3.8125C176.569 3.8125 176.517 3.81901 176.465 3.83203C176.452 3.83203 176.439 3.83203 176.426 3.83203C175.189 3.83203 173.333 3.83854 170.859 3.85156C170.586 3.85156 170.176 3.85156 169.629 3.85156C169.355 3.85156 168.945 3.85156 168.398 3.85156C167.161 3.83854 165.306 3.83203 162.832 3.83203C162.819 3.83203 162.806 3.83203 162.793 3.83203C162.741 3.81901 162.689 3.8125 162.637 3.8125C162.585 3.8125 162.533 3.8125 162.48 3.8125Z" fill="white"/>
</svg>
